<?xml version="1.0" encoding="UTF-8"?><svg id="b" xmlns="http://www.w3.org/2000/svg" viewBox="0 0 827.71375 149.37928"><defs><style>.d{fill:#005a7c;}</style></defs><g id="c"><path class="d" d="M304.95985,138.01972c0,.65137-.17969,1.2373-.53711,1.75781-.3584.52148-1.00977.94434-1.95312,1.26953-.94434.32617-2.19727.58594-3.75977.78125s-3.54883.29297-5.95703.29297c-2.34375,0-4.29688-.09766-5.85938-.29297s-2.7998-.45508-3.71094-.78125c-.91211-.3252-1.5625-.74805-1.95312-1.26953-.39062-.52051-.58594-1.10645-.58594-1.75781V35.18769h-.19531l-36.62109,102.73438c-.26074.84668-.68359,1.54688-1.26953,2.09961-.58594.55371-1.38379.99316-2.39258,1.31836-1.00977.3252-2.29492.53711-3.85742.63477s-3.45117.14648-5.66406.14648c-2.21387,0-4.10156-.08203-5.66406-.24414-1.5625-.16309-2.84863-.42285-3.85742-.78125-1.00977-.35742-1.80664-.79688-2.39258-1.31836-.58594-.52051-.97656-1.13867-1.17188-1.85547l-35.35156-102.73438h-.19531v102.83203c0,.65137-.17969,1.2373-.53711,1.75781-.3584.52148-1.02539.94434-2.00195,1.26953-.97656.32617-2.23047.58594-3.75977.78125-1.53027.19531-3.5.29297-5.9082.29297-2.34375,0-4.29688-.09766-5.85938-.29297s-2.81641-.45508-3.75977-.78125c-.94434-.3252-1.5957-.74805-1.95312-1.26953-.3584-.52051-.53711-1.10645-.53711-1.75781V25.42206c0-3.32031.87891-5.85938,2.63672-7.61719s4.10156-2.63672,7.03125-2.63672h16.79688c2.99414,0,5.56641.24414,7.71484.73242s4.00391,1.30322,5.56641,2.44141c1.5625,1.13965,2.86426,2.63672,3.90625,4.49219,1.04102,1.85547,1.95312,4.15039,2.73438,6.88477l27.34375,75.29297h.39062l28.32031-75.09766c.8457-2.73438,1.77344-5.04443,2.7832-6.93359,1.00879-1.8877,2.18066-3.41797,3.51562-4.58984,1.33398-1.17188,2.91309-2.00195,4.73633-2.49023,1.82227-.48828,3.93848-.73242,6.34766-.73242h17.28516c1.75781,0,3.27148.229,4.54102.68359,1.26953.45605,2.31055,1.12305,3.125,2.00195.81348.87891,1.43164,1.95312,1.85547,3.22266.42285,1.26953.63477,2.71924.63477,4.3457v112.59766Z"/><path class="d" d="M405.25282,138.508c0,.91211-.32617,1.62793-.97656,2.14844-.65137.52148-1.67676.89453-3.07617,1.12305-1.40039.22754-3.4668.3418-6.20117.3418-2.92969,0-5.0625-.11426-6.39648-.3418-1.33496-.22852-2.2793-.60156-2.83203-1.12305-.55371-.52051-.83008-1.23633-.83008-2.14844v-6.93359c-3.58105,3.8418-7.66602,6.83594-12.25586,8.98438s-9.68457,3.22266-15.2832,3.22266c-4.62305,0-8.87109-.60254-12.74414-1.80664-3.87402-1.2041-7.22656-2.99414-10.05859-5.37109-2.83203-2.37598-5.0293-5.32227-6.5918-8.83789s-2.34375-7.61719-2.34375-12.30469c0-5.07812.99219-9.48828,2.97852-13.23242,1.98535-3.74316,4.94727-6.83594,8.88672-9.27734,3.93848-2.44141,8.83789-4.24805,14.69727-5.41992s12.66211-1.75781,20.41016-1.75781h8.49609v-5.27344c0-2.73438-.27734-5.12695-.83008-7.17773-.55371-2.05078-1.46484-3.75977-2.73438-5.12695s-2.96289-2.37598-5.07812-3.02734c-2.11621-.65039-4.73633-.97656-7.86133-.97656-4.10156,0-7.76367.45605-10.98633,1.36719-3.22266.91211-6.07129,1.9209-8.54492,3.02734-2.47461,1.10742-4.54102,2.11621-6.20117,3.02734-1.66016.91211-3.01172,1.36719-4.05273,1.36719-.7168,0-1.35156-.22754-1.9043-.68359-.55371-.45508-1.00977-1.10645-1.36719-1.95312-.3584-.8457-.63477-1.8877-.83008-3.125-.19531-1.23633-.29297-2.60352-.29297-4.10156,0-2.01758.16211-3.61328.48828-4.78516.3252-1.17188.94336-2.22949,1.85547-3.17383.91113-.94336,2.50586-1.98535,4.78516-3.125,2.27832-1.13867,4.94727-2.19727,8.00781-3.17383,3.05957-.97656,6.39648-1.77295,10.00977-2.39258,3.61328-.61816,7.33984-.92773,11.18164-.92773,6.83594,0,12.67871.66846,17.5293,2.00195,4.84961,1.33496,8.83789,3.38574,11.96289,6.15234,3.125,2.76758,5.40332,6.33203,6.83594,10.69336,1.43164,4.3623,2.14844,9.53809,2.14844,15.52734v58.59375ZM381.13172,101.20331h-9.375c-3.97168,0-7.35742.29297-10.15625.87891-2.7998.58594-5.07812,1.46484-6.83594,2.63672s-3.04395,2.58789-3.85742,4.24805c-.81445,1.66016-1.2207,3.56445-1.2207,5.71289,0,3.64648,1.15527,6.51074,3.4668,8.59375,2.31055,2.08398,5.51758,3.125,9.61914,3.125,3.4502,0,6.62402-.87891,9.52148-2.63672,2.89648-1.75781,5.84277-4.3291,8.83789-7.71484v-14.84375Z"/><path class="d" d="M541.38563,129.62128c0,2.86523-.17969,5.0459-.53711,6.54297-.3584,1.49805-.84668,2.57227-1.46484,3.22266-.61914.65137-1.49805,1.20508-2.63672,1.66016-1.13965.45605-2.45801.87891-3.95508,1.26953-1.49805.39062-3.1416.68359-4.93164.87891-1.79102.19531-3.56445.29297-5.32227.29297-4.94824,0-9.21289-.61914-12.79297-1.85547-3.58105-1.23633-6.54297-3.14062-8.88672-5.71289-2.34375-2.57129-4.06934-5.81055-5.17578-9.7168-1.10742-3.90625-1.66016-8.52832-1.66016-13.86719v-44.62891h-37.40234v40.91797c0,4.75293.74805,8.31738,2.24609,10.69336,1.49707,2.37695,4.16602,3.56445,8.00781,3.56445,1.30176,0,2.47363-.11328,3.51562-.3418,1.04102-.22754,1.96875-.48828,2.7832-.78125.81348-.29297,1.49707-.55273,2.05078-.78125.55273-.22754,1.05762-.3418,1.51367-.3418.39062,0,.76465.11426,1.12305.3418.35742.22852.63477.68359.83008,1.36719s.37402,1.61133.53711,2.7832c.16211,1.17188.24414,2.66992.24414,4.49219,0,1.82324-.04883,3.27148-.14648,4.3457s-.22852,1.96973-.39062,2.68555c-.16309.7168-.3584,1.31836-.58594,1.80664-.22852.48828-.60254.94434-1.12305,1.36719-.52148.42383-1.33496.86328-2.44141,1.31836-1.10742.45508-2.40918.8623-3.90625,1.2207-1.49805.35742-3.1416.63477-4.93164.83008-1.79102.19531-3.59766.29297-5.41992.29297-4.88281,0-9.11523-.61914-12.69531-1.85547-3.58105-1.23633-6.54297-3.14062-8.88672-5.71289-2.34375-2.57129-4.06934-5.81055-5.17578-9.7168-1.10742-3.90625-1.66016-8.52832-1.66016-13.86719v-44.62891h-10.44922c-1.2373,0-2.18164-.76465-2.83203-2.29492-.65137-1.5293-.97656-4.08496-.97656-7.66602,0-1.8877.08105-3.48242.24414-4.78516.16211-1.30176.40625-2.32715.73242-3.07617.3252-.74756.73242-1.28467,1.2207-1.61133.48828-.3252,1.05762-.48828,1.70898-.48828h10.35156v-19.43359c0-.6499.17871-1.23584.53711-1.75781.35742-.52051,1.00879-.95996,1.95312-1.31836.94336-.35693,2.21289-.61816,3.80859-.78125,1.59473-.16162,3.56445-.24414,5.9082-.24414,2.4082,0,4.41016.08252,6.00586.24414,1.59473.16309,2.84766.42432,3.75977.78125.91113.3584,1.5625.79785,1.95312,1.31836.39062.52197.58594,1.10791.58594,1.75781v19.43359h37.40234v-24.12109c0-.6499.17871-1.23584.53711-1.75781.35742-.52051,1.00879-.94287,1.95312-1.26953.94336-.3252,2.21289-.58594,3.80859-.78125,1.59473-.19531,3.56445-.29297,5.9082-.29297,2.4082,0,4.41016.09766,6.00586.29297,1.59473.19531,2.84766.45605,3.75977.78125.91113.32666,1.5625.74902,1.95312,1.26953.39062.52197.58594,1.10791.58594,1.75781v24.12109h18.94531c.65039,0,1.2041.16309,1.66016.48828.45508.32666.8623.86377,1.2207,1.61133.35742.74902.61816,1.77441.78125,3.07617.16211,1.30273.24414,2.89746.24414,4.78516,0,3.58105-.3418,6.13672-1.02539,7.66602-.68359,1.53027-1.61133,2.29492-2.7832,2.29492h-19.04297v40.91797c0,4.75293.73242,8.31738,2.19727,10.69336,1.46484,2.37695,4.15039,3.56445,8.05664,3.56445,1.30176,0,2.47363-.11328,3.51562-.3418,1.04102-.22754,1.95312-.48828,2.73438-.78125s1.46484-.55273,2.05078-.78125c.58594-.22754,1.10645-.3418,1.5625-.3418.39062,0,.74805.11426,1.07422.3418.3252.22852.60156.68359.83008,1.36719.22754.68359.42285,1.61133.58594,2.7832.16211,1.17188.24414,2.66992.24414,4.49219Z"/><path class="d" d="M645.29188,93.78144c0,7.42188-.97656,14.19336-2.92969,20.3125-1.95312,6.12012-4.91602,11.39355-8.88672,15.82031-3.97168,4.42773-8.95215,7.8457-14.94141,10.25391-5.99023,2.4082-12.98828,3.61328-20.99609,3.61328-7.74805,0-14.48633-1.07422-20.21484-3.22266-5.72949-2.14844-10.48242-5.27344-14.25781-9.375-3.77637-4.10156-6.57617-9.14648-8.39844-15.13672-1.82324-5.98926-2.73438-12.8252-2.73438-20.50781,0-7.42188.99219-14.20898,2.97852-20.36133,1.98535-6.15234,4.96387-11.42578,8.93555-15.82031,3.9707-4.39453,8.93555-7.7959,14.89258-10.20508,5.95703-2.40771,12.93945-3.61328,20.94727-3.61328,7.8125,0,14.58301,1.05908,20.3125,3.17383,5.72852,2.11621,10.46484,5.22461,14.20898,9.32617,3.74316,4.10156,6.52637,9.14746,8.34961,15.13672,1.82227,5.99023,2.73438,12.8584,2.73438,20.60547ZM619.99891,94.758c0-4.29688-.3418-8.25195-1.02539-11.86523s-1.83984-6.75391-3.4668-9.42383c-1.62793-2.66895-3.79297-4.75195-6.49414-6.25-2.70215-1.49707-6.10352-2.24609-10.20508-2.24609-3.64648,0-6.83594.66797-9.57031,2.00195-2.73438,1.33496-4.98047,3.28809-6.73828,5.85938-1.75781,2.57227-3.07617,5.66406-3.95508,9.27734s-1.31836,7.73145-1.31836,12.35352c0,4.29688.35742,8.25195,1.07422,11.86523.71582,3.61328,1.87109,6.75488,3.4668,9.42383,1.59473,2.66992,3.75977,4.73633,6.49414,6.20117s6.11914,2.19727,10.15625,2.19727c3.71094,0,6.93359-.66699,9.66797-2.00195,2.73438-1.33398,4.98047-3.27148,6.73828-5.81055s3.05957-5.61523,3.90625-9.22852c.8457-3.61328,1.26953-7.73047,1.26953-12.35352Z"/><path class="d" d="M726.0536,113.60565c0,4.94824-.92773,9.31055-2.7832,13.08594-1.85547,3.77637-4.47656,6.93359-7.86133,9.47266-3.38574,2.53906-7.38965,4.44336-12.01172,5.71289-4.62305,1.26953-9.63574,1.9043-15.03906,1.9043-3.25586,0-6.36426-.24414-9.32617-.73242-2.96289-.48828-5.61523-1.10742-7.95898-1.85547s-4.29688-1.51367-5.85938-2.29492-2.70215-1.51367-3.41797-2.19727c-.7168-.68359-1.26953-1.75781-1.66016-3.22266s-.58594-3.62891-.58594-6.49414c0-1.8877.06445-3.40137.19531-4.54102.12988-1.13867.3252-2.05078.58594-2.73438.25977-.68359.58594-1.13867.97656-1.36719.39062-.22754.87891-.3418,1.46484-.3418.71582,0,1.77344.40723,3.17383,1.2207,1.39941.81445,3.14062,1.70898,5.22461,2.68555,2.08301.97656,4.50781,1.88867,7.27539,2.73438,2.7666.84668,5.9082,1.26953,9.42383,1.26953,2.21289,0,4.18262-.22754,5.9082-.68359,1.72461-.45508,3.22266-1.10645,4.49219-1.95312,1.26953-.8457,2.22949-1.91992,2.88086-3.22266.65039-1.30176.97656-2.79883.97656-4.49219,0-1.95312-.60254-3.62891-1.80664-5.0293-1.20508-1.39941-2.7998-2.62012-4.78516-3.66211-1.98633-1.04102-4.23242-2.01758-6.73828-2.92969-2.50684-.91113-5.07812-1.91992-7.71484-3.02734-2.63672-1.10645-5.20898-2.37598-7.71484-3.80859-2.50684-1.43164-4.75293-3.18945-6.73828-5.27344-1.98633-2.08301-3.58105-4.58984-4.78516-7.51953-1.20508-2.92969-1.80664-6.44531-1.80664-10.54688,0-4.16602.81348-7.99121,2.44141-11.47461,1.62695-3.48242,3.9707-6.46094,7.03125-8.93555,3.05957-2.47363,6.78711-4.39453,11.18164-5.76172s9.32617-2.05078,14.79492-2.05078c2.73438,0,5.38672.19531,7.95898.58594,2.57129.39062,4.89844.87891,6.98242,1.46484,2.08301.58594,3.84082,1.2207,5.27344,1.9043,1.43164.68359,2.45703,1.26953,3.07617,1.75781.61816.48828,1.05762.97656,1.31836,1.46484.25977.48828.45508,1.07422.58594,1.75781.12988.68359.24414,1.53027.3418,2.53906.09766,1.00977.14648,2.2627.14648,3.75977,0,1.75781-.04883,3.19043-.14648,4.29688-.09766,1.10742-.26074,1.98633-.48828,2.63672-.22852.65137-.53711,1.09082-.92773,1.31836-.39062.22852-.84668.3418-1.36719.3418-.58594,0-1.49805-.3418-2.73438-1.02539-1.2373-.68359-2.7832-1.41602-4.63867-2.19727s-4.00391-1.51367-6.44531-2.19727-5.22461-1.02539-8.34961-1.02539c-2.21387,0-4.13477.22852-5.76172.68359-1.62793.45605-2.96289,1.10742-4.00391,1.95312-1.04199.84668-1.82324,1.83984-2.34375,2.97852-.52148,1.13965-.78125,2.36035-.78125,3.66211,0,2.01855.61816,3.71094,1.85547,5.07812,1.23633,1.36719,2.86426,2.57227,4.88281,3.61328,2.01758,1.04199,4.3125,2.01855,6.88477,2.92969,2.57129.91211,5.17578,1.9043,7.8125,2.97852s5.24023,2.32812,7.8125,3.75977c2.57129,1.43262,4.86621,3.19043,6.88477,5.27344,2.01758,2.08398,3.64551,4.57422,4.88281,7.4707,1.23633,2.89746,1.85547,6.33203,1.85547,10.30273Z"/><path class="d" d="M827.71375,138.21503c0,.65137-.19531,1.2207-.58594,1.70898s-1.04199.89551-1.95312,1.2207c-.91211.32617-2.16504.56934-3.75977.73242-1.5957.16211-3.56445.24414-5.9082.24414-2.40918,0-4.41113-.08203-6.00586-.24414-1.5957-.16309-2.84863-.40625-3.75977-.73242-.91211-.3252-1.5625-.73242-1.95312-1.2207s-.58594-1.05762-.58594-1.70898v-49.70703c0-4.23145-.30957-7.55176-.92773-9.96094-.61914-2.4082-1.51367-4.47559-2.68555-6.20117-1.17188-1.72461-2.68555-3.05957-4.54102-4.00391-1.85547-.94336-4.02051-1.41602-6.49414-1.41602-3.125,0-6.2832,1.13965-9.47266,3.41797-3.19043,2.2793-6.51074,5.59961-9.96094,9.96094v57.91016c0,.65137-.19531,1.2207-.58594,1.70898s-1.05859.89551-2.00195,1.2207c-.94434.32617-2.19727.56934-3.75977.73242-1.5625.16211-3.54883.24414-5.95703.24414-2.40918,0-4.39453-.08203-5.95703-.24414-1.5625-.16309-2.81641-.40625-3.75977-.73242-.94434-.3252-1.61133-.73242-2.00195-1.2207s-.58594-1.05762-.58594-1.70898V9.79706c0-.6499.19531-1.23584.58594-1.75781.39062-.52051,1.05762-.95996,2.00195-1.31836.94336-.35693,2.19727-.63477,3.75977-.83008s3.54785-.29297,5.95703-.29297c2.4082,0,4.39453.09766,5.95703.29297s2.81543.47314,3.75977.83008c.94336.3584,1.61133.79785,2.00195,1.31836.39062.52197.58594,1.10791.58594,1.75781v48.14453c4.23145-4.16602,8.54492-7.27539,12.93945-9.32617s8.96777-3.07617,13.7207-3.07617c5.92383,0,10.9209.97656,14.99023,2.92969,4.06836,1.95312,7.35645,4.62305,9.86328,8.00781,2.50586,3.38574,4.3125,7.34082,5.41992,11.86523,1.10645,4.52539,1.66016,10.00977,1.66016,16.45508v53.41797Z"/><path class="d" d="M.51274,56.21266c1.10663-.02469,2.14729.03973,3.29441.21908,3.97535.15102,7.38022-3.71997,11.43459-2.64658,5.86111.23128,10.47354,6.24957,16.30764,4.40379l4.10747-1.21619c2.46557-1.61671,2.20339,1.77652,3.76068,2.5158,10.08591,2.0589,4.75644-2.43523,12.93702-3.27531,5.67769-1.1355,7.903,5.23828,12.09907,7.67325,3.50397.89022,7.10864-2.70299,10.70718-3.30393,8.10725-2.42114,16.95015-4.83858,25.44624-3.83578,14.19922,1.3007,25.1051,10.12401,36.54684,17.76397l.0022.00105c.19309-2.10713.3105-4.26838.34835-6.48375C136.0476-18.53978,13.04693-22.49601.51788,56.20867l-.00514.00399Z"/><path class="d" d="M136.93733,80.91061c0,37.8142-30.65447,68.46867-68.46867,68.46867S0,118.72481,0,80.91061h136.93733Z"/></g></svg>